<svg width="400" height="400" viewBox="0 0 400 400" fill="none" xmlns="http://www.w3.org/2000/svg">
  <rect width="400" height="400" fill="#E5E7EB"/>
  <path d="M159.6 200.8C159.6 181.067 175.867 164.8 195.6 164.8C215.333 164.8 231.6 181.067 231.6 200.8C231.6 220.533 215.333 236.8 195.6 236.8C175.867 236.8 159.6 220.533 159.6 200.8ZM195.6 172.8C180.277 172.8 167.6 185.477 167.6 200.8C167.6 216.123 180.277 228.8 195.6 228.8C210.923 228.8 223.6 216.123 223.6 200.8C223.6 185.477 210.923 172.8 195.6 172.8Z" fill="#9CA3AF"/>
  <path d="M196.8 184.8C196.8 186.123 195.723 187.2 194.4 187.2C193.077 187.2 192 186.123 192 184.8C192 183.477 193.077 182.4 194.4 182.4C195.723 182.4 196.8 183.477 196.8 184.8Z" fill="#9CA3AF"/>
</svg>